<?xml version="1.0" encoding="UTF-8"?>
<svg id="Layer_1" data-name="Layer 1" xmlns="http://www.w3.org/2000/svg" viewBox="0 0 285.36 71.76">
  <defs>
    <style>
      .cls-1 {
        fill: #ffc425;
      }

      .cls-2 {
        fill: #fff;
      }

      .cls-3 {
        fill: #00583d;
      }
    </style>
  </defs>
  <g>
    <path class="cls-2" d="M34.28,70.81c-.82,0-1.63-.04-2.43-.11-6.89-.64-13.28-4.01-18-9.48-4.72-5.48-7.33-12.61-7.37-20.08V15.44l-3.43-1.95v-1.73c-.22.02-.44.05-.66.07l-1.87.21.87-4.89L.59,2.75l1.5-.17c.32-.04.64-.07.97-.1V.12h62.35v2.35c.33.03.67.07,1,.11l1.5.17-.82,4.4.87,4.89-1.87-.21c-.23-.03-.46-.05-.69-.07v1.73l-3.33,1.96v26.08c-.14,7.33-2.76,14.32-7.38,19.69-4.72,5.48-11.11,8.85-18.01,9.48-.78.08-1.6.11-2.41.11Z"/>
    <path class="cls-3" d="M66.08,7.14l.65-3.52-.43-.05c-.4-.04-.8-.09-1.21-.13-.23-.02-.46-.04-.69-.07V1.13H4.06v2.26c-.22.02-.43.04-.65.06-.4.04-.8.08-1.21.13l-.43.05.65,3.52-.67,3.75.53-.06c.4-.04.8-.09,1.2-.13.19-.02.38-.04.57-.05v2.26h.02v.02s3.41,1.93,3.41,1.93v26.27c.04,7.23,2.57,14.13,7.13,19.43,4.54,5.28,10.7,8.53,17.33,9.14.76.07,1.55.11,2.33.11s1.56-.04,2.32-.11c6.64-.61,12.79-3.85,17.34-9.13,4.48-5.2,7-11.95,7.13-19.03V14.88s3.33-1.95,3.33-1.95v-.02s0,0,0,0v-2.26c.2.02.41.04.61.06.4.04.8.08,1.2.13l.53.06-.67-3.75Z"/>
    <path class="cls-2" d="M3.49,4.25c-.26.03-.51.05-.77.08l.52,2.81-.51,2.84c.22-.02.45-.05.67-.07.21-.02.42-.04.64-.06v-5.66c-.19.02-.37.03-.56.05Z"/>
    <path class="cls-2" d="M65.78,4.33c-.26-.03-.51-.05-.77-.08-.2-.02-.4-.04-.6-.06v5.66c.23.02.46.04.68.07.22.02.45.05.67.07l-.51-2.84.52-2.81Z"/>
    <polygon class="cls-2" points="61.07 12.9 61.07 13.95 62.85 12.91 61.07 12.9"/>
    <polygon class="cls-2" points="7.49 12.9 7.49 13.95 5.71 12.91 7.49 12.9"/>
    <path class="cls-2" d="M58.01,41.56v.8s-.12,1.6-.12,1.6c-.06.71-.15,1.42-.27,2.1-.92,5.39-3.38,10.22-7.12,13.99-3.77,3.79-8.46,6.12-13.57,6.73-.88.1-1.77.16-2.65.16s-1.77-.05-2.64-.16c-5.08-.6-9.76-2.91-13.52-6.67-3.73-3.73-6.2-8.53-7.15-13.88-.12-.64-.21-1.3-.28-2.02v-.04s0-.02,0-.02c-.09-.87-.13-1.73-.14-2.58V12.91h-2.25v28.22c.04,7.04,2.5,13.75,6.94,18.91,4.41,5.12,10.37,8.27,16.8,8.86,1.47.14,3.03.14,4.5,0,6.43-.59,12.4-3.74,16.8-8.86,4.44-5.16,6.9-11.87,6.94-18.91v-.4s0-27.82,0-27.82h-2.26v28.64Z"/>
    <g>
      <path class="cls-2" d="M28.02,23.93l-16.67-5.89v1.97l14.05,7.4c.56-.93,1.24-1.87,2.09-2.82.11-.14.31-.41.53-.66Z"/>
      <path class="cls-2" d="M11.35,30.7v2.39l12.07.84c.02-1.31.27-2.73.85-4.22l-12.92.99Z"/>
      <path class="cls-2" d="M45.16,33.93l12.05-.83v-2.41l-12.52-1c.38,1.53.52,2.95.47,4.24Z"/>
      <path class="cls-2" d="M57.21,20.3v-2.16l-15.3,5.37c.91,1.4,1.59,2.75,2.1,4.03l13.21-7.24Z"/>
      <path class="cls-2" d="M11.6,44.06l-.12.06c.07.66.16,1.31.27,1.96l14.13-4.85s0,0,0,0c-.7-.83-1.47-2.11-1.96-3.69l-12.33,6.53Z"/>
      <path class="cls-2" d="M56.82,45.92c.16-.74.26-1.51.32-2.2l-12.48-6.59c-.47,1.66-1.12,3-1.79,3.9l13.95,4.88Z"/>
    </g>
    <path class="cls-2" d="M63.6,1.93H4.87v10.18h26.14c.04-3.4.98-6.89,3.19-8.39.2-.14.44-.21.67-.21.28,0,.56.1.79.29.41.36.53.94.3,1.43,0,.02-1.06,2.32-.37,4.92.02,0,.05,0,.07,0,.46,0,.89.26,1.09.69.04.08.25.53.53,1.26h26.33V1.93Z"/>
    <g>
      <path class="cls-1" d="M40.92,43.79c0,.34-2.97.61-6.64.61s-6.64-.27-6.64-.61v-1.36c-.16-.04-.31-.09-.44-.14-.32-.1-.79-.48-1.3-1.08,0,0,0,0,0,0,0,0,0,0,0,0l-14.13,4.85c1.87,10.54,9.94,18.71,19.97,19.9-.32-3.66-.65-6.74-.96-11.74,2.34.22,4.69.22,7.03,0-.32,5.01-.64,8.08-.96,11.74,10.07-1.2,18.17-9.43,19.99-20.05l-13.95-4.88s.01-.02.02-.03h0c-.56.73-1.11,1.2-1.5,1.36-.13.05-.28.11-.47.15,0,0,0,0,0,0v1.26ZM39.77,53.05c0,.28-2.46.5-5.49.5s-5.49-.23-5.49-.5v-1.72c1.46.17,3.38.27,5.49.27s4.03-.1,5.49-.27v1.72ZM42.08,47.44s0,.02,0,.03M41.94,49.86c0,.58-3.43,1.05-7.67,1.05s-7.67-.47-7.67-1.05l-.32-5.45c0-.06.04-.12.11-.17.03.43,3.55.77,7.88.77s7.85-.35,7.88-.77c.07.06.11.11.11.17l-.32,5.45Z"/>
      <path class="cls-1" d="M43.66,37.82c-.25,1.47-.88,2.61-1.44,3.37-.56.77-1.45,1.32-1.45,1.32-.22.17-2.74.48-6.46.48-1.86,0-5.83-.18-6.43-.48,0,0-2-.99-2.96-4.49-.94-3.5-.56-7.67,3.49-12.67-1.48,2.7-1.71,4.87-1.34,6.68.46,2.25,2.16,3.13,2.16,3.13,0,0-1.18-3.49-.23-5.92,2.2-5.53,9.28-8.49,6.63-17.87.29.62,4.28,9.59,1.96,15.35-.73,1.77-.68,3.22-.28,4.19.5,1.23,1.58,1.68,2.34.97.9-.83,1.2-2.19,1.23-3.62.04-2.44-.76-5.03-.86-5.35,1.45,1.52,5.07,7.39,3.62,14.91Z"/>
      <path class="cls-1" d="M34.52,10.84c-1.03-3.25.35-6.12.35-6.12-2.11,1.42-2.99,5.55-2.56,9.57.41,3.88.22,6.78-.11,8.79,2.16-3.14,3.9-6.73,2.32-12.23Z"/>
      <path class="cls-2" d="M26.34,32.77c-.09.66-.69,5.44,2.1,6.64.98.42,2.1-1.04.9-2.31-1.09-1.16-2.78-1.74-3-4.33Z"/>
      <path class="cls-2" d="M41.58,34.22c-.68.6-1.51.96-2.44.96-1.98,0-3.62-1.65-3.98-3.83-.05-.29-.08-.59-.08-.89,0-.71.5-2.78.61-3.2.3-1.11.74-2.35.6-3.46-.01-.07-.02-.12-.04-.18-.05-.18-.09-.33-.13-.43,0-.01,0-.03-.01-.04h0c-.08-.22-.19-.42-.34-.62-.16,2.14-2.71,4.27-4.03,6.74-.33.62-.58,1.26-.7,1.91-.08.42-.08,2.11.01,2.61.35,2.37,2.41,5.28,6.53,5.11,3.43-.16,4.49-3.62,4.55-5.31-.16.24-.36.45-.58.63Z"/>
    </g>
    <g>
      <polygon class="cls-3" points="10.09 4.38 8.53 4.85 8.78 5.84 9.73 5.6 9.73 9.88 10.91 9.88 10.91 4.38 10.09 4.38"/>
      <path class="cls-3" d="M24.68,7.05c.42-.26.69-.61.69-1.2h0c0-.86-.76-1.51-1.92-1.51s-1.92.67-1.92,1.5h0c0,.6.27.95.69,1.21-.58.26-.88.65-.88,1.32v.02c0,.95.9,1.58,2.11,1.58s2.11-.59,2.11-1.61v-.02c0-.65-.33-1-.88-1.28ZM22.67,5.97c0-.34.29-.63.78-.63s.78.31.78.64h0c0,.4-.3.68-.78.68s-.78-.29-.78-.67v-.02ZM24.39,8.29c0,.38-.35.68-.94.68s-.94-.31-.94-.68v-.02c0-.42.4-.67.94-.67s.94.25.94.67v.02Z"/>
      <path class="cls-3" d="M42.87,6.65l1.38-1.32v-.9h-3.69v1.03h2.14l-1.3,1.31.18.76h.5c.67,0,1.07.25,1.07.69v.02c0,.41-.32.66-.77.66-.55,0-.94-.23-1.32-.65l-.83.79c.47.55,1.15.95,2.13.95,1.22,0,1.97-.76,1.97-1.79v-.02c0-1.02-.73-1.41-1.47-1.53Z"/>
      <path class="cls-3" d="M56.66,6.33c-.31,0-.5.04-.72.09l.06-.94h2.32v-1.05h-3.35l-.16,2.69.69.46c.26-.11.57-.2.91-.2.57,0,.97.28.97.74v.02c0,.48-.35.75-.91.75-.49,0-.89-.22-1.3-.59l-.72.87c.53.51,1.17.82,2.04.82,1.26,0,2.08-.73,2.08-1.89v-.02c0-1.23-.85-1.75-1.91-1.75Z"/>
    </g>
  </g>
  <g>
    <path class="cls-3" d="M74.06,27.14l1.89-2.64c1.15,1.2,2.94,2.2,5.19,2.2,1.91,0,2.84-.88,2.84-1.81,0-2.89-9.4-.91-9.4-7.05,0-2.72,2.35-4.97,6.2-4.97,2.6,0,4.75.78,6.37,2.28l-1.93,2.55c-1.32-1.22-3.09-1.79-4.75-1.79-1.49,0-2.33.66-2.33,1.64,0,2.6,9.38.86,9.38,6.96,0,2.99-2.13,5.24-6.54,5.24-3.13,0-5.39-1.05-6.91-2.6Z"/>
    <path class="cls-3" d="M89.86,22.93v-9.82h3.53v9.7c0,2.28,1.32,3.84,3.84,3.84s3.82-1.57,3.82-3.84v-9.7h3.55v9.8c0,4.07-2.4,6.83-7.37,6.83s-7.37-2.79-7.37-6.81Z"/>
    <path class="cls-3" d="M119.07,29.44l-7.79-10.65v10.65h-3.48V13.11h3.58l7.57,10.26v-10.26h3.48v16.34h-3.36Z"/>
    <path class="cls-3" d="M131.37,29.44v-6.69l-6.29-9.65h3.97l4.07,6.56,4.02-6.56h3.97l-6.25,9.65v6.69h-3.48Z"/>
  </g>
  <path class="cls-3" d="M74.63,57.13v-21.42h12.14c4.24,0,6.26,2.76,6.26,5.46s-1.64,4.46-3.66,4.91c2.28.35,4.08,2.54,4.08,5.23,0,3.12-2.09,5.81-6.29,5.81h-12.53ZM87.41,42.13c0-1.03-.77-1.77-1.89-1.77h-5.36v3.56h5.36c1.12,0,1.89-.74,1.89-1.8ZM87.83,50.54c0-1.06-.77-1.93-2.12-1.93h-5.56v3.85h5.56c1.32,0,2.12-.77,2.12-1.93Z"/>
  <path class="cls-3" d="M108.73,57.13l-3.6-7.19h-2.83v7.19h-5.52v-21.42h10.73c4.75,0,7.45,3.15,7.45,7.13,0,3.73-2.28,5.72-4.27,6.42l4.37,7.87h-6.33ZM109.34,42.8c0-1.45-1.22-2.28-2.67-2.28h-4.37v4.59h4.37c1.45,0,2.67-.8,2.67-2.31Z"/>
  <path class="cls-3" d="M117.64,46.43c0-6.52,4.91-11.08,11.47-11.08s11.43,4.56,11.43,11.08-4.88,11.08-11.43,11.08-11.47-4.56-11.47-11.08ZM134.92,46.43c0-3.5-2.28-6.2-5.81-6.2s-5.85,2.7-5.85,6.2,2.28,6.2,5.85,6.2,5.81-2.73,5.81-6.2Z"/>
  <path class="cls-3" d="M143.37,46.43c0-6.62,5.01-11.08,11.59-11.08,5.17,0,7.93,2.92,9.35,5.75l-4.75,2.25c-.71-1.7-2.54-3.12-4.59-3.12-3.5,0-5.97,2.7-5.97,6.2s2.47,6.2,5.97,6.2c2.06,0,3.89-1.41,4.59-3.12l4.75,2.25c-1.38,2.76-4.18,5.75-9.35,5.75-6.58,0-11.59-4.5-11.59-11.08Z"/>
  <path class="cls-3" d="M180.62,57.13l-5.62-8.06-1.45,1.8v6.26h-5.52v-21.42h5.52v8.8l6.58-8.8h6.81l-8.32,10.02,8.77,11.4h-6.78Z"/>
  <path class="cls-3" d="M190.48,57.13v-21.42h10.73c4.82,0,7.45,3.24,7.45,7.13s-2.63,7.1-7.45,7.1h-5.2v7.19h-5.52ZM203.04,42.83c0-1.48-1.09-2.31-2.57-2.31h-4.46v4.59h4.46c1.48,0,2.57-.83,2.57-2.28Z"/>
  <path class="cls-3" d="M211.49,46.43c0-6.52,4.91-11.08,11.47-11.08s11.43,4.56,11.43,11.08-4.88,11.08-11.43,11.08-11.47-4.56-11.47-11.08ZM228.77,46.43c0-3.5-2.28-6.2-5.81-6.2s-5.85,2.7-5.85,6.2,2.28,6.2,5.85,6.2,5.81-2.73,5.81-6.2Z"/>
  <path class="cls-3" d="M249.93,57.13l-3.6-7.19h-2.83v7.19h-5.52v-21.42h10.73c4.75,0,7.45,3.15,7.45,7.13,0,3.73-2.28,5.72-4.27,6.42l4.37,7.87h-6.33ZM250.54,42.8c0-1.45-1.22-2.28-2.67-2.28h-4.37v4.59h4.37c1.45,0,2.67-.8,2.67-2.31Z"/>
  <path class="cls-3" d="M264.88,57.13v-16.6h-6.01v-4.82h17.5v4.82h-5.97v16.6h-5.52Z"/>
</svg>